<svg id="Layer_1" data-name="Layer 1" xmlns="http://www.w3.org/2000/svg" viewBox="0 0 453.68 135.27"><defs><style>.cls-1{fill:#f6444b;}.cls-2{fill:#437b86;}.cls-3{fill:#6fc5a4;}.cls-4{fill:#f7d443;}.cls-5{fill:#3d3b3a;}</style></defs><title>ecrcentral-logo</title><path class="cls-1" d="M86.17,18c21.87,5,39.09,18.48,45.37,35.44A66.05,66.05,0,0,0,70.85,0C76.75,2.64,82,9,86.17,18"/><path class="cls-2" d="M47.24,17.66C50.89,8.77,55.57,2.52,60.86,0A65.73,65.73,0,0,0-.45,56.59C4.86,37.73,23.42,22.68,47.24,17.66"/><path class="cls-2" d="M17.91,70.59C7.39,69.92,2.31,69.18-.16,68.45c0,0.2,0,.41,0,0.61C0.33,90.29,19.73,108.19,46.15,114,42,102.82,39.37,88,39.06,71.5c-7.8-.21-15-0.52-21.15-0.91"/><path class="cls-3" d="M47.16,117.68C23.83,113,5.5,99.13-.45,81.64a66.06,66.06,0,0,0,61.3,53.63c-5.31-2.51-10-8.74-13.7-17.59"/><path class="cls-1" d="M51,118.17c4,9.11,9.09,14.94,14.7,15.9,6.39-1,12.2-6.92,16.72-16.2a89.34,89.34,0,0,1-31.42.3"/><path class="cls-2" d="M95.24,68c21-.65,33.75-1.94,36.38-3-2-20.2-20-37-44.31-43.19,4.93,12,7.94,27.85,7.94,45.28,0,0.31,0,.62,0,0.93"/><path class="cls-3" d="M82.41,17.46C77.89,8.15,72.07,2.17,65.66,1.2,60,2.16,54.93,8,50.94,17.15a86.36,86.36,0,0,1,31.47.31"/><path class="cls-1" d="M39,67.07c0-17.82,2.67-33.81,7.09-45.72C20.9,27.11,2.09,44.28,0,65c2.74,1.12,16.47,2.48,39,3.09,0-.34,0-0.67,0-1"/><path class="cls-4" d="M91.82,68.07c0-.33,0-0.66,0-1,0-17.9-3.15-34.13-8.22-45.89a84.22,84.22,0,0,0-33.71-.4C45.31,32.57,42.45,49,42.45,67.07c0,0.36,0,.71,0,1.06q10.52,0.26,23.35.27c9.65,0,18.34-.13,26-0.34"/><path class="cls-2" d="M86.13,117.32c-4.13,8.95-9.39,15.32-15.27,17.9a66.06,66.06,0,0,0,60.09-50.66c-6.74,15.69-23.59,28-44.82,32.76"/><path class="cls-4" d="M-0.18,93.27v42H41.92s-31.31-8.88-42.11-42"/><path class="cls-5" d="M179.61,46.54c11.05,0,16.71,6,16.71,6l-3.18,4.81a20.94,20.94,0,0,0-13.26-5c-10.27,0-17,7.8-17,17.55s6.83,18.14,17,18.14a20.77,20.77,0,0,0,14.17-6l3.45,4.62A24.61,24.61,0,0,1,179.74,94C166,94,156.27,83.47,156.27,70s10-23.47,23.34-23.47"/><polygon class="cls-5" points="205.82 48.1 232.47 48.1 232.47 53.69 212.25 53.69 212.25 68.06 228.7 68.06 228.7 73.65 212.25 73.65 212.25 88.41 233.58 88.41 233.58 94 205.82 94 205.82 48.1"/><path class="cls-5" d="M244.12,48.1h6.37l20.41,29.84c1.69,2.47,3.84,6.63,3.84,6.63h0.13s-0.45-4.09-.45-6.63V48.1h6.44V94h-6.31L254.07,64.22c-1.69-2.53-3.83-6.7-3.83-6.7H250.1s0.45,4.1.45,6.7V94h-6.44V48.1Z"/><polygon class="cls-5" points="302.06 53.69 286.32 53.69 286.32 48.1 324.23 48.1 324.23 53.69 308.49 53.69 308.49 94 302.06 94 302.06 53.69"/><path class="cls-5" d="M331.45,48.1h14c4.81,0,6.83.39,8.58,1,4.68,1.76,7.74,6.37,7.74,12.42,0,5.85-3.25,10.79-8.26,12.41V74.1a13.19,13.19,0,0,1,1.37,2.08L364.68,94h-7.28l-9.69-18.27h-9.82V94h-6.44V48.1Zm15.67,22c5,0,8.13-3.19,8.13-8.32,0-3.38-1.3-5.78-3.64-7.09-1.24-.65-2.73-1-6.31-1h-7.41V70.14h9.23Z"/><path class="cls-5" d="M399.43,80.8H382.14L377.59,94H371l16.51-45.9h6.76L410.75,94h-6.7Zm-8.65-26.4s-1,4.16-1.82,6.5l-5.14,14.56h13.91l-5.07-14.56c-0.78-2.34-1.76-6.5-1.76-6.5h-0.13Z"/><polygon class="cls-5" points="420.15 48.1 426.58 48.1 426.58 88.41 447.13 88.41 447.13 94 420.15 94 420.15 48.1"/></svg>