<svg id="Layer_1" data-name="Layer 1" xmlns="http://www.w3.org/2000/svg" viewBox="0 0 670.97 135.27"><defs><style>.cls-1{fill:#f6444b;}.cls-2{fill:#437b86;}.cls-3{fill:#6fc5a4;}.cls-4{fill:#f7d443;}.cls-5,.cls-6{fill:#3d3b3a;}.cls-10,.cls-6,.cls-8{font-size:44.84px;font-family:Lato;}.cls-7{letter-spacing:-1px;}.cls-8{fill:#4d4d4d;}.cls-9{letter-spacing:1px;}.cls-10{fill:#56514f;}</style></defs><title>ecrcentral-logo</title><path class="cls-1" d="M86.35,18c21.87,5,39.09,18.48,45.37,35.44A66.05,66.05,0,0,0,71,0c5.9,2.59,11.18,9,15.31,18"/><path class="cls-2" d="M47.42,17.66C51.07,8.77,55.76,2.52,61,0A65.73,65.73,0,0,0-.27,56.59C5,37.73,23.61,22.68,47.42,17.66"/><path class="cls-2" d="M18.09,70.59C7.57,69.92,2.49,69.18,0,68.45c0,0.2,0,.41,0,0.61C0.51,90.29,19.91,108.19,46.34,114c-4.16-11.18-6.78-26-7.09-42.5-7.8-.21-15-0.52-21.15-0.91"/><path class="cls-3" d="M47.34,117.68C24,113,5.69,99.13-.27,81.64A66.06,66.06,0,0,0,61,135.27c-5.31-2.51-10-8.74-13.7-17.59"/><path class="cls-1" d="M51.15,118.17c4,9.11,9.09,14.94,14.7,15.9,6.39-1,12.2-6.92,16.72-16.2a89.34,89.34,0,0,1-31.42.3"/><path class="cls-2" d="M95.43,68c21-.65,33.75-1.94,36.38-3-2-20.2-20-37-44.31-43.19,4.93,12,7.94,27.85,7.94,45.28,0,0.31,0,.62,0,0.93"/><path class="cls-3" d="M82.6,17.46C78.08,8.15,72.25,2.17,65.85,1.2,60.23,2.16,55.12,8,51.13,17.15a86.36,86.36,0,0,1,31.47.31"/><path class="cls-1" d="M39.21,67.07c0-17.82,2.67-33.81,7.09-45.72C21.08,27.11,2.27,44.28.18,65c2.74,1.12,16.47,2.48,39,3.09,0-.34,0-0.67,0-1"/><path class="cls-4" d="M92,68.07c0-.33,0-0.66,0-1,0-17.9-3.15-34.13-8.22-45.89a84.22,84.22,0,0,0-33.71-.4C45.49,32.57,42.64,49,42.64,67.07c0,0.36,0,.71,0,1.06q10.52,0.26,23.35.27c9.65,0,18.34-.13,26-0.34"/><path class="cls-2" d="M86.31,117.32c-4.13,8.95-9.39,15.32-15.27,17.9a66.06,66.06,0,0,0,60.09-50.66c-6.74,15.69-23.59,28-44.82,32.76"/><path class="cls-4" d="M0,93.27v42H42.11S10.79,126.34,0,93.27"/><path class="cls-5" d="M400,46.67c11.05,0,16.71,6,16.71,6l-3.18,4.81a20.94,20.94,0,0,0-13.26-5c-10.27,0-17,7.8-17,17.55s6.83,18.14,17,18.14a20.77,20.77,0,0,0,14.17-6L418,86.85a24.61,24.61,0,0,1-17.81,7.28c-13.78,0-23.47-10.53-23.47-24s10-23.47,23.34-23.47"/><polygon class="cls-5" points="426.23 48.23 452.89 48.23 452.89 53.82 432.67 53.82 432.67 68.19 449.12 68.19 449.12 73.78 432.67 73.78 432.67 88.54 453.99 88.54 453.99 94.13 426.23 94.13 426.23 48.23"/><path class="cls-5" d="M464.53,48.23h6.37l20.41,29.84c1.69,2.47,3.84,6.63,3.84,6.63h0.13s-0.45-4.09-.45-6.63V48.23h6.44v45.9H495L474.48,64.35c-1.69-2.53-3.83-6.7-3.83-6.7h-0.13s0.45,4.1.45,6.7V94.13h-6.44V48.23Z"/><polygon class="cls-5" points="522.47 53.82 506.74 53.82 506.74 48.23 544.64 48.23 544.64 53.82 528.91 53.82 528.91 94.13 522.47 94.13 522.47 53.82"/><path class="cls-5" d="M551.87,48.23h14c4.81,0,6.83.39,8.58,1,4.68,1.76,7.74,6.37,7.74,12.42,0,5.85-3.25,10.79-8.26,12.41v0.13a13.19,13.19,0,0,1,1.37,2.08l9.75,17.82h-7.28l-9.69-18.27H558.3V94.13h-6.44V48.23Zm15.67,22c5,0,8.13-3.19,8.13-8.32,0-3.38-1.3-5.78-3.64-7.09-1.24-.65-2.73-1-6.31-1H558.3V70.27h9.23Z"/><path class="cls-5" d="M619.85,80.93H602.56L598,94.13h-6.63l16.51-45.9h6.76l16.51,45.9h-6.7Zm-8.65-26.4s-1,4.16-1.82,6.5L604.25,75.6h13.91L613.09,61c-0.78-2.34-1.76-6.5-1.76-6.5H611.2Z"/><polygon class="cls-5" points="640.57 48.23 647 48.23 647 88.54 667.54 88.54 667.54 94.13 640.57 94.13 640.57 48.23"/><text class="cls-6" transform="translate(140.43 65.3)">earl<tspan class="cls-7" x="72.33" y="0">y</tspan></text><text class="cls-8" transform="translate(139.34 97.98)"><tspan class="cls-9">r</tspan><tspan class="cls-9" x="17.33" y="0">esea</tspan><tspan class="cls-9" x="114.1" y="0">r</tspan><tspan class="cls-9" x="131.43" y="0">che</tspan><tspan x="207.33" y="0">r</tspan></text><text class="cls-10" transform="translate(239.45 65.3)">ca<tspan x="44.06" y="0">r</tspan><tspan x="59.64" y="0">ee</tspan><tspan x="107.35" y="0">r</tspan></text></svg>