<svg id="Layer_1" data-name="Layer 1" xmlns="http://www.w3.org/2000/svg" viewBox="0 0 160 160"><defs><style>.cls-1{fill:#f6444b;}.cls-2{fill:#437b86;}.cls-3{fill:#6fc5a4;}.cls-4{fill:#f7d443;}</style></defs><title>ecrcentral-logo</title><path class="cls-1" d="M103.9,25.73c23.6,5.42,42.17,19.83,49,38A71.15,71.15,0,0,0,87.38,6.43c6.36,2.78,12.06,9.65,16.52,19.3"/><path class="cls-2" d="M61.9,25.34c3.94-9.54,9-16.25,14.69-19A70.78,70.78,0,0,0,10.44,67.13C16.18,46.88,36.2,30.72,61.9,25.34"/><path class="cls-2" d="M30.25,82.16c-11.36-.72-16.84-1.52-19.5-2.3,0,0.22,0,.44,0,0.66,0.55,22.79,21.48,42,50,48.24-4.49-12-7.32-27.87-7.65-45.62-8.42-.23-16.17-0.55-22.82-1"/><path class="cls-3" d="M61.81,132.7c-25.16-5-44.94-19.91-51.37-38.68a71.15,71.15,0,0,0,66.14,57.57c-5.73-2.7-10.81-9.39-14.78-18.89"/><path class="cls-1" d="M65.92,133.23c4.3,9.78,9.81,16,15.86,17.07,6.9-1,13.17-7.43,18-17.39a96.89,96.89,0,0,1-33.9.32"/><path class="cls-2" d="M113.69,79.37c22.63-.69,36.41-2.08,39.25-3.23-2.2-21.68-21.58-39.76-47.81-46.37,5.32,12.83,8.56,29.9,8.56,48.61,0,0.33,0,.66,0,1"/><path class="cls-3" d="M99.85,25.12C95,15.12,88.69,8.71,81.78,7.67,75.71,8.7,70.2,15,65.9,24.79a93.66,93.66,0,0,1,34,.33"/><path class="cls-1" d="M53,78.38c0-19.13,2.88-36.29,7.65-49.08C33.48,35.48,13.18,53.92,10.93,76.14c3,1.2,17.77,2.66,42.12,3.32,0-.36,0-0.72,0-1.08"/><path class="cls-4" d="M110,79.45c0-.36,0-0.71,0-1.07,0-19.22-3.39-36.64-8.87-49.26a91.33,91.33,0,0,0-36.37-.43c-5,12.65-8,30.24-8,49.68,0,0.38,0,.76,0,1.14q11.36,0.28,25.19.3c10.41,0,19.78-.14,28.07-0.37"/><path class="cls-2" d="M103.86,132.32c-4.45,9.61-10.13,16.44-16.48,19.22a71.17,71.17,0,0,0,64.83-54.39c-7.27,16.85-25.45,30.1-48.36,35.17"/><path class="cls-4" d="M10.73,106.49v45H56.16s-33.78-9.54-45.43-45"/></svg>