<svg id="Layer_1" data-name="Layer 1" xmlns="http://www.w3.org/2000/svg" viewBox="0 0 338.22 135.27"><defs><style>.cls-1{fill:#f6444b;}.cls-2{fill:#437b86;}.cls-3{fill:#6fc5a4;}.cls-4{fill:#f7d443;}.cls-5,.cls-7{fill:#3d3b3a;}.cls-6{fill:none;stroke:#1f978a;stroke-miterlimit:10;stroke-width:2px;}.cls-11,.cls-7,.cls-9{font-size:38.58px;font-family:Lato;}.cls-8{letter-spacing:-1px;}.cls-9{fill:#4d4d4d;}.cls-10{letter-spacing:1px;}.cls-11{fill:#56514f;}</style></defs><title>ecrcentral-logo</title><path class="cls-1" d="M86.61,18c21.87,5,39.09,18.48,45.37,35.44A66.05,66.05,0,0,0,71.3,0c5.9,2.59,11.18,9,15.31,18"/><path class="cls-2" d="M47.69,17.66C51.34,8.77,56,2.52,61.3,0A65.73,65.73,0,0,0,0,56.59C5.31,37.73,23.87,22.68,47.69,17.66"/><path class="cls-2" d="M18.36,70.59C7.83,69.92,2.76,69.18.29,68.45c0,0.2,0,.41,0,0.61C0.77,90.29,20.17,108.19,46.6,114c-4.16-11.18-6.78-26-7.09-42.5-7.8-.21-15-0.52-21.15-0.91"/><path class="cls-3" d="M47.61,117.68C24.28,113,6,99.13,0,81.64a66.06,66.06,0,0,0,61.3,53.63c-5.31-2.51-10-8.74-13.7-17.59"/><path class="cls-1" d="M51.41,118.17c4,9.11,9.09,14.94,14.7,15.9,6.39-1,12.2-6.92,16.72-16.2a89.34,89.34,0,0,1-31.42.3"/><path class="cls-2" d="M95.69,68c21-.65,33.75-1.94,36.38-3-2-20.2-20-37-44.31-43.19,4.93,12,7.94,27.85,7.94,45.28,0,0.31,0,.62,0,0.93"/><path class="cls-3" d="M82.86,17.46C78.34,8.15,72.52,2.17,66.11,1.2,60.49,2.16,55.38,8,51.39,17.15a86.36,86.36,0,0,1,31.47.31"/><path class="cls-1" d="M39.48,67.07c0-17.82,2.67-33.81,7.09-45.72C21.35,27.11,2.54,44.28.45,65c2.74,1.12,16.47,2.48,39,3.09,0-.34,0-0.67,0-1"/><path class="cls-4" d="M92.27,68.07c0-.33,0-0.66,0-1,0-17.9-3.15-34.13-8.22-45.89a84.22,84.22,0,0,0-33.71-.4C45.76,32.57,42.9,49,42.9,67.07c0,0.36,0,.71,0,1.06q10.52,0.26,23.35.27c9.65,0,18.34-.13,26-0.34"/><path class="cls-2" d="M86.58,117.32c-4.13,8.95-9.39,15.32-15.27,17.9a66.06,66.06,0,0,0,60.09-50.66c-6.74,15.69-23.59,28-44.82,32.76"/><path class="cls-4" d="M0.27,93.27v42H42.37s-31.31-8.88-42.11-42"/><path class="cls-5" d="M157.57,92.44a12.47,12.47,0,0,1,8.82,3.19l-1.68,2.54a11.05,11.05,0,0,0-7-2.64c-5.42,0-9,4.12-9,9.27s3.6,9.58,9,9.58a11,11,0,0,0,7.48-3.16l1.82,2.44a13,13,0,0,1-9.4,3.84c-7.27,0-12.39-5.56-12.39-12.66a12.09,12.09,0,0,1,12.32-12.39"/><polygon class="cls-5" points="177.57 93.26 191.64 93.26 191.64 96.21 180.97 96.21 180.97 103.8 189.65 103.8 189.65 106.75 180.97 106.75 180.97 114.54 192.23 114.54 192.23 117.49 177.57 117.49 177.57 93.26"/><path class="cls-5" d="M204,93.26h3.36L218.1,109c0.89,1.3,2,3.5,2,3.5h0.07S220,110.35,220,109V93.26h3.4v24.23H220l-10.81-15.72c-0.89-1.34-2-3.53-2-3.53h-0.07s0.24,2.16.24,3.53v15.72H204V93.26Z"/><polygon class="cls-5" points="240.72 96.21 232.41 96.21 232.41 93.26 252.42 93.26 252.42 96.21 244.12 96.21 244.12 117.49 240.72 117.49 240.72 96.21"/><path class="cls-5" d="M262.41,93.26h7.41a12.21,12.21,0,0,1,4.53.55c2.47,0.93,4.08,3.36,4.08,6.55a6.65,6.65,0,0,1-4.36,6.55V107a7,7,0,0,1,.72,1.1l5.15,9.4H276.1L271,107.84h-5.18v9.64h-3.4V93.26Zm8.27,11.63A4,4,0,0,0,275,100.5,4,4,0,0,0,273,96.76a6.67,6.67,0,0,0-3.33-.55h-3.91v8.68h4.87Z"/><path class="cls-5" d="M304.46,110.52h-9.13l-2.4,7h-3.5l8.72-24.23h3.57l8.72,24.23H306.9ZM299.9,96.59s-0.55,2.2-1,3.43l-2.71,7.69h7.34L300.9,100c-0.41-1.24-.93-3.43-0.93-3.43H299.9Z"/><polygon class="cls-5" points="321.57 93.26 324.97 93.26 324.97 114.54 335.81 114.54 335.81 117.49 321.57 117.49 321.57 93.26"/><line class="cls-6" x1="146.48" y1="83.82" x2="335.48" y2="83.82"/><text class="cls-7" transform="translate(144.75 43.87)">earl<tspan class="cls-8" x="62.23" y="0">y</tspan></text><text class="cls-9" transform="translate(143.81 71.99)">r<tspan class="cls-10" x="14.91" y="0">esea</tspan><tspan x="98.16" y="0">r</tspan><tspan class="cls-10" x="113.08" y="0">che</tspan><tspan x="178.37" y="0">r</tspan></text><text class="cls-11" transform="translate(229.93 43.87)">ca<tspan x="37.9" y="0">r</tspan><tspan x="51.31" y="0">ee</tspan><tspan x="92.36" y="0">r</tspan></text></svg>